<svg xmlns="http://www.w3.org/2000/svg" width="100.008" height="100.008" viewBox="0 0 4167 4167">
  <defs>
    <style>
      .cls-1 {
        fill-rule: evenodd;
      }
    </style>
  </defs>
  <path id="Color_Fill_1" data-name="Color Fill 1" class="cls-1" d="M2459,271c128.18-.195,150.03,104.561,188,194,49.55,116.718,101.58,234.85,152,349,17.92,40.583,54.99,124.947,86,149,25.53,19.8,61.65,18.45,101,26q101.985,14,204,28l577,82q86.985,12.495,174,25c29.65,5.91,56.4,6.62,80,17,13.57,5.97,28.26,17.27,32,33,5.13,21.56-7.08,42.03-13,57q-21,56.49-42,113-84.99,217.485-170,435c-26.66,67.56-41.21,153.37-100,189-46.43,28.14-115.74,15.23-183,26q-189.975,10.995-380,22l-128,9q-48.495,4.005-97,8c-107.37,17.92-219.43,15.67-319,41-239.71,60.99-403.23,228.48-475,457-23.35,74.35-48.06,197.01-31,298,19.6,116.03,45,210.81,100,290,69.45,100,167.92,170.41,307,201,45.89,10.09,112.73,9.96,158,0,145.77-32.08,245.43-100.02,297-226,18.51-45.22,37.05-115.88,24-181-15.49-77.32-56.54-144.78-121-173-67.71-29.64-163.27-13.43-200,34-35.27,45.54-20.77,101.13,10,140,13.29,16.78,35.65,26.53,47,45,20.3,33.03,4.29,76.02-19,94-40.83,31.51-112.24,22.15-157,1-81.99-38.75-121.44-108.39-142-209-3.92-19.18-8.9-47.92-5-72,7.17-44.3,10.88-81.57,25-117,60.18-151.04,178.04-220.3,359-252,47.89-8.39,112.23-7.38,159,2,42.19,8.46,82.15,17.81,118,33,166.2,70.42,258.36,204.54,313,387,65.32,218.11-9,447.4-95,588-141.85,231.9-355.69,377.13-655,452-133.42,33.37-334.66,41.58-479,10-95.8-20.96-185.94-41-269-74-381.77-151.67-663.5-416.68-816-798-39.45-98.64-65.8-205.04-91-319-16.413-74.23-15.869-153.73-29-234q-2-51.99-4-104v-51q1.5-54.495,3-109c2.55-15.98,4.774-37.8,2-52-14.823-6.75-106.3-.45-128,3q-154.985,7.005-310,14c-47.977,7.61-115.433,1.14-143-18-63.1-43.8-64.615-212.62-83-305q-68.992-432.45-138-865-19-127.486-38-255c-6.506-35.025-3.937-83.395,17-98,20.552-14.337,76.821-13.283,109-8l258,32L1555,779c20.36-5.128,68.72-55.393,88-70,71.03-53.825,142.07-108.024,217-158,130.35-86.938,269.34-172.638,423-234a876.182,876.182,0,0,1,110-36Z"/>
</svg>
