<svg xmlns="http://www.w3.org/2000/svg" viewBox="0 0 48 48"><path d="M 30.216797 6.1015625 C 30.084935 6.1013567 29.952471 6.1110209 29.820312 6.1289062 C 29.29168 6.2004472 28.770296 6.4185563 28.339844 6.8007812 A 1.50015 1.50015 0 0 0 28.339844 6.8027344 L 19.117188 15 L 12.5 15 C 10.032499 15 8 17.032499 8 19.5 L 8 28.5 C 8 30.967501 10.032499 33 12.5 33 L 19.117188 33 L 28.339844 41.197266 C 29.200649 41.96254 30.421458 42.075139 31.345703 41.660156 C 32.269948 41.245173 33 40.257378 33 39.105469 L 33 8.8945312 C 33 7.7430679 32.271967 6.7549754 31.347656 6.3398438 C 31.00104 6.1841693 30.612384 6.10218 30.216797 6.1015625 z M 30 9.3398438 L 30 38.660156 L 20.683594 30.378906 A 1.50015 1.50015 0 0 0 19.6875 30 L 12.5 30 C 11.653501 30 11 29.346499 11 28.5 L 11 19.5 C 11 18.653501 11.653501 18 12.5 18 L 19.6875 18 A 1.50015 1.50015 0 0 0 20.683594 17.621094 L 30 9.3398438 z M 37.171875 16.996094 A 1.50015 1.50015 0 0 0 35.880859 19.138672 C 37.397398 22.45712 37.395303 25.559819 35.873047 28.878906 A 1.50015 1.50015 0 1 0 38.599609 30.130859 C 40.437342 26.123947 40.440802 21.898177 38.609375 17.890625 A 1.50015 1.50015 0 0 0 37.171875 16.996094 z"></path></svg>